# xmcd
#
# Track frame offsets: 
#        150
#        20690
#        40531
#        59497
#        80038
#        99879
#
# Disc length: 1583 seconds
#
# Revision: 14
# Processed by: cddbd v1.5.2PL0 Copyright (c) Steve Scherf et al.
# Submitted via: ExactAudioCopy v1.3
#
DISCID=42062d06
DTITLE=???? - ??????
DYEAR=2005
DGENRE=JPop
TTITLE0=??????
TTITLE1=????
TTITLE2=?
TTITLE3=?????????????????
TTITLE4=???????????????
TTITLE5=????????????
EXTD=YEAR: 2005
EXTT0=
EXTT1=
EXTT2=
EXTT3=
EXTT4=
EXTT5=
PLAYORDER=
